HIERARCHY
ROOT Hips
{
	OFFSET 0.00000 0.00000 0.00000
	CHANNELS 6 Xposition Yposition Zposition Zrotation Yrotation Xrotation 
	JOINT LHipJoint
	{
		OFFSET 0 0 0
		CHANNELS 3 Zrotation Yrotation Xrotation
		JOINT LeftHip
		{
			OFFSET 1.58895 -1.83665 0.71753
			CHANNELS 3 Zrotation Yrotation Xrotation
			JOINT LeftKnee
			{
				OFFSET 2.50528 -6.88321 0.00000
				CHANNELS 3 Zrotation Yrotation Xrotation
				JOINT LeftAnkle
				{
					OFFSET 2.63244 -7.23257 0.00000
					CHANNELS 3 Zrotation Yrotation Xrotation
					JOINT LeftToe
					{
						OFFSET 0.23691 -0.65090 1.72750
						CHANNELS 3 Zrotation Yrotation Xrotation
						End Site
						{
							OFFSET 0.00000 -0.00000 0.92561
						}
					}
				}
			}
		}
	}
	JOINT RHipJoint
	{
		OFFSET 0 0 0
		CHANNELS 3 Zrotation Yrotation Xrotation
		JOINT RightHip
		{
			OFFSET -1.51435 -1.83665 0.71753
			CHANNELS 3 Zrotation Yrotation Xrotation
			JOINT RightKnee
			{
				OFFSET -2.54551 -6.99375 0.00000
				CHANNELS 3 Zrotation Yrotation Xrotation
				JOINT RightAnkle
				{
					OFFSET -2.66027 -7.30903 0.00000
					CHANNELS 3 Zrotation Yrotation Xrotation
					JOINT RightToe
					{
						OFFSET -0.22981 -0.63138 2.03959
						CHANNELS 3 Zrotation Yrotation Xrotation
						End Site
						{
							OFFSET -0.00000 -0.00000 1.07060
						}
					}
				}
			}
		}
	}
	JOINT lowerback
	{
		OFFSET 0 0 0
		CHANNELS 3 Zrotation Yrotation Xrotation
		JOINT Chest
		{
			OFFSET -0.02651 1.86275 -0.11152
			CHANNELS 3 Zrotation Yrotation Xrotation
			JOINT Chest2
			{
				OFFSET 0.01019 1.86224 0.04087
				CHANNELS 3 Zrotation Yrotation Xrotation
				JOINT lowerneck
				{
					OFFSET 0 0 0
					CHANNELS 3 Zrotation Yrotation Xrotation
					JOINT Neck
					{
						OFFSET -0.01926 1.80512 0.08867
						CHANNELS 3 Zrotation Yrotation Xrotation
						JOINT Head
						{
							OFFSET 0.05516 1.76451 -0.38475
							CHANNELS 3 Zrotation Yrotation Xrotation
							End Site
							{
								OFFSET 0.01592 1.82587 -0.14001
							}
						}
					}
				}
				JOINT LeftCollar
				{
					OFFSET 0 0 0
					CHANNELS 3 Zrotation Yrotation Xrotation
					JOINT LeftShoulder
					{
						OFFSET 3.47116 1.51376 0.14491
CHANNELS 3 Zrotation Xrotation Yrotation
						JOINT LeftElbow
						{
OFFSET 0 -4.780950 0.000000
CHANNELS 3 Zrotation Xrotation Yrotation
							JOINT LeftWrist
							{
OFFSET 0 -3.586150 -0.000000
CHANNELS 3 Zrotation Xrotation Yrotation
								JOINT lhand
								{
									OFFSET 0 0 0
CHANNELS 3 Zrotation Xrotation Yrotation
									JOINT LFingers
									{
OFFSET 0 -0.659810 0.000000
CHANNELS 3 Zrotation Xrotation Yrotation
										End Site
										{
OFFSET 0 -0.531960 0.000000
										}
									}
								}
								JOINT LThumb
								{
OFFSET 0 0.000000 0.000000
CHANNELS 3 Zrotation Xrotation Yrotation
									End Site
									{
OFFSET 0 -0.540080 0.540080
									}
								}
							}
						}
					}
				}
				JOINT RightCollar
				{
					OFFSET 0 0 0
					CHANNELS 3 Zrotation Yrotation Xrotation
					JOINT RightShoulder
					{
						OFFSET -3.31725 1.61216 0.35156
CHANNELS 3 Zrotation Xrotation Yrotation
						JOINT RightElbow
						{
OFFSET 0 -4.489130 0.000000
CHANNELS 3 Zrotation Xrotation Yrotation
							JOINT RightWrist
							{
OFFSET 0 -3.705100 0.000000
CHANNELS 3 Zrotation Xrotation Yrotation
								JOINT rhand
								{
									OFFSET 0 0 0
CHANNELS 3 Zrotation Xrotation Yrotation
									JOINT RFingers
									{
OFFSET 0 -0.449140 0.000000
CHANNELS 3 Zrotation Xrotation Yrotation
										End Site
										{
OFFSET 0 -0.362110 0.000000
										}
									}
								}
								JOINT RThumb
								{
OFFSET 0 0.000000 0.000000
CHANNELS 3 Zrotation Xrotation Yrotation
									End Site
									{
OFFSET 0 -0.367630 0.367630
									}
								}
							}
						}
					}
				}
			}
		}
	}
}
MOTION
Frames: 9
Frame Time: .0083333
-1.0095 18.2211 5.8475 -4.1743 1.8727 1.7496 0.0000 0.0000 0.0000 -11.6284 -2.3035 16.5995 0.9021 -6.0529 -16.9380 -0.8502 16.1754 -8.0530 0.4073 -4.0970 -11.3498 0.0000 0.0000 0.0000 0.0000 0.0000 0.0000 0.0000 0.0000 0.0000 -0.0000 -0.0000 0.0000 -0.0000 -0.0000 0.0000 3.4997 1.7512 9.3849 1.4274 2.8500 -1.6047 -0.8966 1.2873 -6.8652 -1.1484 -2.0695 -14.3079 -2.3686 -2.1464 15.0743 -0.7952 -1.3092 6.9533 -0.0000 0.0000 0.0000 10.9341 -1.4313 -62.4083 83.1215 -59.8205 54.0466 -5.2005 -4.9206 20.4866 0.0 0.0 0.0 -7.1250 0.0 0.0 -21.2325 10.4155 -18.3894 -0.0000 0.0000 0.0000 -23.6079 -7.1553 51.116 -140.4370 -47.8088 -101.8852 -5.315 -34.4011 46.039 0.0 0.0 0.0 7.1250 0.0 -0.0 50.9694 70.0134 -33.2324
-1.0115 18.2206 5.8346 -4.2221 1.7226 1.7019 0.0000 0.0000 0.0000 -11.5661 -2.2172 16.6247 0.9032 -6.0565 -16.9485 -0.8547 16.2171 -8.0800 0.4110 -4.1154 -11.4016 0.0000 0.0000 0.0000 0.0000 0.0000 0.0000 0.0000 0.0000 0.0000 -0.0000 -0.0000 0.0000 -0.0000 -0.0000 0.0000 3.3950 1.7493 9.2284 1.5208 2.8308 -1.5227 -0.7301 1.2881 -6.6989 -1.2033 -1.9658 -15.3173 -2.4499 -1.8945 18.2466 -0.8348 -1.2286 8.1774 0.0000 0.0000 0.0000 10.762 -2.6293 -62.429 82.5253 -59.7878 53.5314 -5.3272 -4.6744 20.6466 0.0 0.0 0.0 -7.1250 0.0 0.0 -21.2941 10.2679 -18.5206 0.0000 0.0000 0.0000 -22.6062 -4.9165 51.3081 -135.5184 -50.512 -98.162 -3.7363 -32.986 47.3305 0.0 0.0 0.0 7.1250 0.0 -0.0 55.2780 70.22 -36.7976
-1.0118 18.2191 5.8194 -4.2419 1.5650 1.5884 0.0000 0.0000 0.0000 -11.5462 -2.0756 16.6804 0.9011 -6.0496 -16.9285 -0.8556 16.2238 -8.0764 0.4129 -4.1246 -11.4274 0.0000 0.0000 0.0000 0.0000 0.0000 0.0000 0.0000 0.0000 0.0000 -0.0000 -0.0000 0.0000 -0.0000 -0.0000 0.0000 3.3222 1.7544 9.1885 1.6081 2.8295 -1.4302 -0.5948 1.2950 -6.5858 -1.2551 -1.8955 -16.1340 -2.5962 -1.6761 21.0662 -0.8949 -1.1701 9.2900 -0.0000 0.0000 0.0000 10.6186 -4.0034 -62.5199 81.8467 -59.7473 52.945 -5.5502 -4.1998 20.908 0.0 0.0 0.0 -7.1250 0.0 0.0 -21.4038 10.0272 -18.745 -0.0000 0.0000 0.0000 -21.8032 -3.1882 51.137 -129.6490 -53.1361 -93.5453 -2.448 -31.8257 48.6914 0.0 0.0 0.0 7.1250 0.0 -0.0 59.5841 70.485 -40.5757
-1.0097 18.2191 5.8013 -4.1555 1.4292 1.4959 0.0000 0.0000 0.0000 -11.6662 -2.0418 16.7317 0.8987 -6.0420 -16.9063 -0.8661 16.3171 -8.0963 0.4255 -4.1862 -11.6012 0.0000 0.0000 0.0000 0.0000 0.0000 0.0000 0.0000 0.0000 0.0000 -0.0000 -0.0000 0.0000 -0.0000 -0.0000 0.0000 3.2301 1.7451 9.1899 1.6179 2.8048 -1.3660 -0.5285 1.2881 -6.5239 -1.1817 -1.8363 -16.7141 -2.8139 -1.4930 23.4889 -1.0002 -1.1246 10.2579 -0.0000 -0.0000 0.0000 10.5691 -5.4294 -62.6502 81.1010 -59.6986 52.301 -5.5827 -3.7828 21.0505 0.0 0.0 0.0 -7.1250 0.0 0.0 -21.4107 9.8944 -18.8143 -0.0000 -0.0000 0.0000 -21.3056 -3.0004 51.1659 -122.0432 -55.7404 -87.3534 -2.4426 -30.2876 50.2458 0.0 0.0 0.0 7.1250 0.0 -0.0 63.5839 71.1969 -44.7638
-1.0042 18.2213 5.7813 -4.0964 1.4060 1.4468 0.0000 0.0000 0.0000 -11.7618 -2.1484 16.7278 0.8930 -6.0233 -16.8521 -0.8760 16.4092 -8.1716 0.4123 -4.1218 -11.4195 0.0000 0.0000 0.0000 0.0000 0.0000 0.0000 0.0000 0.0000 0.0000 -0.0000 -0.0000 0.0000 -0.0000 -0.0000 0.0000 3.2439 1.6584 9.1492 1.6133 2.6863 -1.3094 -0.5217 1.2312 -6.4433 -1.0932 -1.7893 -17.1634 -3.0014 -1.3421 25.5957 -1.1004 -1.0873 11.1217 -0.0000 -0.0000 0.0000 10.5799 -6.8456 -62.7573 80.2583 -59.6384 51.5737 -5.0448 -3.5407 21.34 0.0 0.0 0.0 -7.1250 0.0 0.0 -21.0681 9.6126 -18.5933 -0.0000 -0.0000 0.0000 -20.1237 -2.6779 50.8417 -113.8085 -57.7459 -80.4627 -2.5038 -27.3799 51.5304 0.0 0.0 0.0 7.1250 0.0 -0.0 67.0739 71.7315 -48.4409
-0.9936 18.2230 5.7608 -4.1291 1.5389 1.3964 0.0000 0.0000 0.0000 -11.7590 -2.3349 16.6625 0.8788 -5.9763 -16.7156 -0.8740 16.3970 -8.2195 0.3846 -3.9823 -11.0269 0.0000 0.0000 0.0000 0.0000 0.0000 0.0000 0.0000 0.0000 0.0000 -0.0000 -0.0000 0.0000 -0.0000 -0.0000 0.0000 3.4472 1.4921 9.0779 1.6369 2.4827 -1.2335 -0.5784 1.1271 -6.3212 -1.0947 -1.7359 -17.5065 -3.1243 -1.1778 27.3850 -1.1571 -1.0429 11.8779 -0.0000 -0.0000 0.0000 10.5295 -8.3428 -62.829 79.1753 -59.5526 50.6396 -4.2664 -3.3768 21.7381 0.0 0.0 0.0 -7.1250 0.0 0.0 -20.5758 9.2201 -18.2658 -0.0000 -0.0000 0.0000 -19.855 -3.901 51.1113 -103.6818 -59.2807 -71.8201 -6.5502 -19.6331 49.7366 0.0 0.0 0.0 7.1250 0.0 -0.0 59.2955 72.4296 -42.4892
-0.9993 18.2190 5.7392 -4.1622 0.9439 1.2017 0.0000 0.0000 0.0000 -11.7367 -1.9749 16.8195 0.8702 -5.9478 -16.6330 -0.8881 16.5434 -8.4661 0.3634 -3.8727 -10.7188 0.0000 0.0000 0.0000 0.0000 0.0000 0.0000 0.0000 0.0000 0.0000 -0.0000 -0.0000 0.0000 -0.0000 -0.0000 0.0000 3.2922 1.5953 9.2449 1.7305 2.6124 -1.1216 -0.4158 1.1990 -6.3047 -1.1448 -1.6835 -17.7041 -3.2183 -1.0152 28.8425 -1.1893 -0.9991 12.5001 0.0000 -0.0000 0.0000 10.382 -9.9689 -62.8758 77.6517 -59.4159 49.327 -3.6664 -3.4098 22.0887 0.0 0.0 0.0 -7.1250 0.0 0.0 -20.1948 8.8731 -18.0275 0.0000 -0.0000 0.0000 -19.2427 -5.1223 50.7979 -93.2769 -59.9594 -62.8375 -2.8655 -13.6808 49.4892 0.0 0.0 0.0 7.1250 0.0 -0.0 61.2943 71.0089 -42.5969
-1.0083 18.2293 5.7182 -4.1504 -0.0261 1.5264 0.0000 0.0000 0.0000 -11.7694 -1.5929 16.4488 0.8605 -5.9155 -16.5394 -0.9254 16.9004 -8.8671 0.3403 -3.7484 -10.3698 0.0000 0.0000 0.0000 0.0000 0.0000 0.0000 0.0000 0.0000 0.0000 -0.0000 -0.0000 0.0000 -0.0000 -0.0000 0.0000 2.9787 1.8787 8.9579 1.8237 2.9488 -1.1577 -0.1810 1.3790 -6.1904 -1.2119 -1.6893 -17.7483 -3.3360 -0.9325 29.9595 -1.2332 -0.9940 12.9684 -0.0000 -0.0000 0.0000 10.14 -11.7158 -62.9847 75.6615 -59.2087 47.6154 -3.1621 -3.6717 22.3974 0.0 0.0 0.0 -7.1250 0.0 0.0 -19.8751 8.5657 -17.8313 -0.0000 -0.0000 0.0000 -18.6249 -6.2194 50.996 -83.9785 -59.8625 -54.7876 -5.7885 -4.8975 48.8507 0.0 0.0 0.0 7.1250 0.0 -0.0 57.4346 71.7297 -40.1767
-0.9944 18.2249 5.6989 -4.1428 0.4891 1.2680 0.0000 0.0000 0.0000 -11.7832 -1.7989 16.5527 0.8512 -5.8841 -16.4484 -0.8999 16.6641 -8.6535 0.3470 -3.7847 -10.4718 0.0000 0.0000 0.0000 0.0000 0.0000 0.0000 0.0000 0.0000 0.0000 -0.0000 -0.0000 0.0000 -0.0000 -0.0000 0.0000 3.2266 1.6396 9.1294 1.8705 2.6645 -1.0506 -0.2352 1.2323 -6.1723 -1.3457 -1.7389 -17.6709 -3.4010 -0.9173 30.8070 -1.2503 -1.0171 13.3090 -0.0000 -0.0000 0.0000 9.7718 -13.5011 -63.1755 73.2364 -58.9111 45.5353 -2.628 -3.8768 22.8574 0.0 0.0 0.0 -7.1250 0.0 0.0 -19.5303 8.1122 -17.6662 -0.0000 -0.0000 0.0000 -17.8666 -6.698 51.4064 -76.5343 -59.3036 -48.3657 -8.0594 2.2523 48.9003 0.0 0.0 0.0 7.1250 0.0 -0.0 55.8135 72.5669 -39.7295
